<svg width="2260" height="348" viewBox="0 0 2260 348" fill="none" xmlns="http://www.w3.org/2000/svg">
<g clip-path="url(#clip0_217_1431)">
<g filter="url(#filter0_in_217_1431)">
<g clip-path="url(#clip1_217_1431)">
<rect y="181" width="2260" height="167" rx="83.5" fill="url(#paint0_linear_217_1431)"/>
<g opacity="0.1">
<path fill-rule="evenodd" clip-rule="evenodd" d="M43.2076 221.821V217.02H40.8072V221.821H36.0064V224.221H40.8072V229.022H43.2076V224.221H48.0085V221.821H43.2076ZM43.2076 185.815V181.014H40.8072V185.815H36.0064V188.215H40.8072V193.016H43.2076V188.215H48.0085V185.815H43.2076ZM7.20127 221.821V217.02H4.80085V221.821H0V224.221H4.80085V229.022H7.20127V224.221H12.0021V221.821H7.20127ZM7.20127 185.815V181.014H4.80085V185.815H0V188.215H4.80085V193.016H7.20127V188.215H12.0021V185.815H7.20127Z" fill="white" fill-opacity="0.4"/>
</g>
<rect y="155.82" width="2259.53" height="192.034" fill="url(#paint1_linear_217_1431)"/>
</g>
</g>
<g clip-path="url(#clip2_217_1431)">
<path d="M2124.32 245.1L2131.44 291.677C2131.67 293.15 2130.78 294.566 2129.35 295L1665.82 436.168C1664.04 436.709 1662.21 435.521 1661.97 433.679L1655.66 384.421C1655.48 382.964 1656.37 381.587 1657.78 381.166L2120.49 242.679C2122.24 242.157 2124.04 243.298 2124.32 245.1Z" fill="#120E27"/>
<path fill-rule="evenodd" clip-rule="evenodd" d="M2120.36 333.829L1690.03 467.634C1678.22 471.306 1665.94 463.486 1664.27 451.231L1661.81 433.143L2131.62 293.109L2134.24 311.987C2135.58 321.681 2129.71 330.923 2120.36 333.829ZM2124.38 243.144L2097.76 48.6671C2096.06 36.4605 2083.84 28.6725 2072.06 32.2956L1642.18 164.53C1632.82 167.409 1626.92 176.64 1628.24 186.342L1655.21 384.601L2124.38 243.144Z" fill="url(#paint2_linear_217_1431)"/>
<path d="M2002.81 241.071L2004.03 247.365L2010.25 246.161L2009.07 240.042C2008.56 237.44 2007.07 236.707 2005.28 237.054C2003.45 237.408 2002.34 238.645 2002.81 241.071ZM2020.69 229.986L2021.62 234.768L2015.6 235.932C2013.35 236.367 2012.64 237.381 2013.18 240.194L2014.19 245.399L2023.33 243.629L2024.25 248.377L2000.9 252.895L1998.61 241.045C1997.77 236.72 2000.1 233.313 2003.97 232.565C2006.47 232.082 2008.82 232.904 2010.06 234.998C2010.33 232.794 2011.34 231.796 2014.08 231.265L2020.69 229.986ZM2011.77 219.122L2009.86 219.454C2010.41 219.823 2010.81 220.584 2011.45 222.211C2012.45 224.718 2013.35 225.419 2014.83 225.133C2016.13 224.881 2016.61 223.985 2016.33 222.543C2015.88 220.187 2013.81 218.763 2011.77 219.122ZM2017.45 213.243L2018.28 217.498C2017.88 217.72 2017.3 217.941 2016.78 218.079C2018.19 218.937 2019.35 220.609 2019.8 222.93C2020.56 226.869 2018.98 229.072 2016.17 229.616C2011.18 230.582 2009.97 227.351 2008.44 222.866C2007.68 220.642 2007.1 220.098 2005.91 220.329C2004.78 220.547 2004.33 221.801 2004.68 223.595C2005.08 225.669 2006.26 226.316 2007.85 226.227L2008.68 230.482C2005.08 231.106 2002.2 229.62 2001.12 224.064C2000.06 218.578 2002.16 216.203 2006.52 215.359L2017.45 213.243ZM2016.25 207.043L2017.14 211.614L1993.51 216.187L1992.62 211.616L2016.25 207.043ZM2010.93 198.019C2010.41 195.347 2008.37 194.428 2004.82 195.115C2001.73 195.714 1999.9 197.747 2000.34 200.032C2000.76 202.213 2003.13 203.506 2006.05 202.941C2009.81 202.213 2011.42 200.551 2010.93 198.019ZM2023.28 199.424L2024.15 203.925L1998.65 208.859L1997.8 204.463L1999.91 204.02C1997.94 203.27 1996.82 201.809 1996.41 199.699C1995.56 195.338 1998.4 191.542 2004.24 190.412C2009.48 189.398 2013.68 191.321 2014.55 195.787C2014.96 197.932 2014.41 199.79 2012.83 201.445L2023.28 199.424ZM2009.43 171.808L2010.32 176.414L1999.6 178.49C1997 178.993 1996.36 180.029 1996.76 182.104C1997.2 184.389 1999.35 185.288 2001.67 184.839L2011.58 182.92L2012.47 187.491L1988.84 192.064L1987.95 187.493L1996.53 185.832C1994.86 185.463 1993.29 183.578 1992.84 181.257C1992.15 177.706 1993.75 174.843 1997.2 174.176L2009.43 171.808ZM2052.24 224.574L2055.67 242.297L2032.32 246.815L2029 229.655L2033.08 228.866L2035.48 241.279L2040.47 240.312L2038.26 228.884L2042.38 228.088L2044.59 239.516L2050.6 238.353L2048.09 225.377L2052.24 224.574ZM2047.24 216.302C2046.82 214.122 2044.46 212.829 2041.54 213.394C2037.78 214.122 2036.16 215.784 2036.65 218.315C2037.17 220.988 2039.21 221.907 2042.76 221.219C2045.85 220.621 2047.69 218.588 2047.24 216.302ZM2048.93 207.476L2049.78 211.872L2047.68 212.315C2049.65 213.065 2050.77 214.526 2051.18 216.636C2052.02 220.996 2049.18 224.793 2043.34 225.922C2038.1 226.936 2033.9 225.014 2033.04 220.548C2032.62 218.403 2033.17 216.545 2034.75 214.89L2026.17 216.55L2025.3 212.049L2048.93 207.476ZM2044.95 186.89L2045.85 191.566L2036.32 196.255L2046.91 197.052L2047.82 201.729L2031.47 210L2030.54 205.183L2041.1 200.219L2029.53 199.978L2028.63 195.336L2039.22 190.478L2027.6 189.992L2026.69 185.279L2044.95 186.89ZM2035.5 173.329L2033.59 173.661C2034.14 174.03 2034.54 174.791 2035.18 176.418C2036.18 178.924 2037.08 179.626 2038.56 179.34C2039.86 179.088 2040.34 178.192 2040.06 176.75C2039.61 174.394 2037.55 172.969 2035.5 173.329ZM2041.18 167.45L2042.01 171.705C2041.61 171.927 2041.03 172.148 2040.51 172.285C2041.92 173.144 2043.08 174.816 2043.53 177.137C2044.29 181.075 2042.71 183.278 2039.9 183.823C2034.91 184.789 2033.7 181.557 2032.17 177.073C2031.42 174.849 2030.84 174.304 2029.64 174.536C2028.52 174.753 2028.06 176.008 2028.41 177.801C2028.81 179.876 2030 180.523 2031.58 180.434L2032.41 184.689C2028.81 185.313 2025.93 183.827 2024.85 178.271C2023.79 172.785 2025.89 170.41 2030.25 169.566L2041.18 167.45ZM2039.98 161.249L2040.87 165.821L2023.57 169.169L2022.74 164.879L2024.81 164.477C2022.2 163.414 2021.65 161.697 2021.29 159.833L2021.17 159.235L2025.85 158.33C2025.86 158.766 2025.91 159.195 2025.99 159.617C2026.53 162.43 2028.2 163.529 2030.98 162.991L2039.98 161.249ZM2034.11 148.414C2033.68 146.233 2031.32 144.94 2028.4 145.505C2024.64 146.233 2023.03 147.895 2023.52 150.427C2024.03 153.099 2026.07 154.018 2029.62 153.331C2032.72 152.732 2034.55 150.699 2034.11 148.414ZM2035.79 139.588L2036.64 143.983L2034.54 144.427C2036.51 145.176 2037.63 146.637 2038.04 148.747C2038.88 153.108 2036.04 156.904 2030.2 158.034C2024.96 159.048 2020.76 157.125 2019.9 152.659C2019.48 150.514 2020.04 148.656 2021.61 147.001L2013.03 148.662L2012.16 144.16L2035.79 139.588ZM2020.55 125.485L2021.4 129.88C2019.76 130.453 2019.34 131.483 2019.74 133.558C2020.07 135.281 2020.69 136.183 2021.71 135.986C2022.73 135.789 2022.96 134.758 2023.13 132.792C2023.31 130.714 2023.34 128.775 2023.61 127.337C2023.99 125.365 2024.99 124.114 2027.24 123.679C2030.83 122.985 2033.48 125.207 2034.44 130.13C2035.46 135.44 2033.54 138.877 2030.04 139.628L2029.12 134.916C2030.74 134.603 2031.42 133.047 2031 130.832C2030.68 129.214 2029.91 127.868 2028.61 128.12C2027.38 128.358 2027.24 129.734 2027.18 131.279C2027.04 134.334 2026.86 136.046 2026.33 137.427C2025.62 139.242 2024.39 140.063 2022.84 140.362C2019.93 140.927 2017.32 139.352 2016.3 134.077C2015.34 129.084 2016.87 126.452 2020.55 125.485Z" fill="white"/>
<foreignObject x="1165.13" y="-68.8716" width="819.909" height="588.831"><div xmlns="http://www.w3.org/1999/xhtml" style="backdrop-filter:blur(34.91px);clip-path:url(#bgblur_3_217_1431_clip_path);height:100%;width:100%"></div></foreignObject><rect data-figma-bg-blur-radius="69.8286" x="1232" y="72.125" width="646.459" height="383.492" rx="27.3923" transform="rotate(-6.58427 1232 72.125)" fill="url(#paint3_linear_217_1431)" fill-opacity="0.5"/>
<path d="M1373.15 266.716L1317.91 273.328C1314.25 273.772 1310.87 271.116 1310.43 267.456L1305.55 226.642C1305.1 222.983 1307.76 219.609 1311.42 219.165L1366.66 212.553C1370.32 212.109 1373.69 214.765 1374.14 218.425L1379.02 259.238C1379.47 262.919 1376.81 266.293 1373.15 266.716Z" fill="#DDCAB2"/>
<path d="M1336.77 263.749C1336.47 263.783 1336.18 263.667 1336 263.409C1335.74 263.052 1335.86 262.546 1336.21 262.29C1337.29 261.566 1338.72 260.263 1339.39 258.255C1340.26 255.689 1339.63 253.08 1339.12 252.924C1338.99 252.875 1338.55 253.183 1338.27 253.365C1337.58 253.832 1336.6 254.481 1335.35 254.218C1334.11 253.953 1333.42 252.981 1333.09 252.505C1330.89 249.434 1329.31 240.929 1330.7 236.436C1331.17 234.944 1331.92 234 1332.95 233.624C1334 233.245 1334.94 233.587 1335.7 233.864C1336.33 234.092 1336.64 234.185 1336.79 234.059C1337.48 233.529 1337.15 230.801 1335.84 228.764C1334.71 226.964 1333.02 226.044 1331.78 225.586C1331.38 225.439 1331.15 224.972 1331.32 224.566C1331.47 224.163 1331.94 223.938 1332.34 224.105C1333.8 224.645 1335.81 225.743 1337.18 227.923C1338.54 230.082 1339.53 233.958 1337.76 235.342C1336.87 236.045 1335.89 235.687 1335.12 235.389C1334.54 235.177 1333.98 234.963 1333.49 235.149C1332.81 235.399 1332.41 236.259 1332.21 236.926C1330.99 240.842 1332.44 248.891 1334.38 251.584C1334.71 252.039 1335.09 252.532 1335.68 252.656C1336.23 252.786 1336.71 252.494 1337.39 252.03C1338.05 251.59 1338.78 251.097 1339.65 251.404C1341.53 252.045 1341.87 255.889 1340.91 258.766C1340.1 261.219 1338.39 262.747 1337.1 263.625C1337.02 263.699 1336.89 263.735 1336.77 263.749Z" fill="#EEEEDB"/>
<path d="M1331.25 237.833L1316.95 239.548C1316.5 239.6 1316.1 239.281 1316.05 238.858C1316 238.414 1316.32 238.012 1316.74 237.963L1331.04 236.248C1331.49 236.197 1331.89 236.515 1331.94 236.938C1332.01 237.381 1331.69 237.782 1331.25 237.833Z" fill="#EEEEDB"/>
<path d="M1332.96 252.134L1318.66 253.849C1318.21 253.901 1317.81 253.582 1317.76 253.159C1317.71 252.714 1318.03 252.313 1318.45 252.264L1332.75 250.549C1333.2 250.498 1333.6 250.816 1333.65 251.239C1333.7 251.663 1333.4 252.083 1332.96 252.134Z" fill="#EEEEDB"/>
<path d="M1353.44 261.759C1353.32 261.774 1353.19 261.767 1353.08 261.716C1351.62 261.176 1349.6 260.079 1348.24 257.899C1346.61 255.341 1346.04 251.524 1347.72 250.451C1348.5 249.953 1349.33 250.265 1350.07 250.523C1350.83 250.8 1351.36 250.974 1351.87 250.723C1352.44 250.442 1352.7 249.768 1352.87 249.363C1354.1 246.282 1353.61 238.123 1351.51 234.612C1351.14 234.011 1350.56 233.263 1349.85 233.195C1349.41 233.138 1349.09 232.747 1349.14 232.311C1349.2 231.876 1349.59 231.552 1350.03 231.609C1351.12 231.74 1352.08 232.466 1352.88 233.811C1355.3 237.843 1355.76 246.477 1354.36 249.985C1354.14 250.525 1353.69 251.649 1352.58 252.186C1351.42 252.748 1350.32 252.339 1349.53 252.043C1349.22 251.929 1348.71 251.753 1348.61 251.807C1348.15 252.096 1348.18 254.774 1349.62 257.053C1350.75 258.853 1352.44 259.773 1353.68 260.231C1354.08 260.378 1354.3 260.845 1354.14 261.25C1354 261.524 1353.74 261.725 1353.44 261.759Z" fill="#EEEEDB"/>
<path d="M1346.75 232.761C1346.41 232.8 1346.09 232.623 1345.92 232.299C1343.62 227.395 1347.12 222.98 1348.34 222.174C1348.7 221.919 1349.2 222.032 1349.46 222.388C1349.71 222.745 1349.6 223.251 1349.24 223.507C1348.71 223.869 1345.43 227.444 1347.39 231.615C1347.59 232.021 1347.41 232.492 1347 232.689C1346.92 232.72 1346.84 232.751 1346.75 232.761Z" fill="#EEEEDB"/>
<path d="M1366.98 233.558L1352.68 235.273C1352.24 235.324 1351.84 235.006 1351.79 234.583C1351.74 234.138 1352.05 233.737 1352.48 233.688L1366.78 231.973C1367.22 231.921 1367.63 232.24 1367.68 232.663C1367.75 233.105 1367.43 233.507 1366.98 233.558Z" fill="#EEEEDB"/>
<path d="M1368.7 247.859L1354.39 249.574C1353.95 249.625 1353.55 249.307 1353.5 248.884C1353.45 248.439 1353.77 248.038 1354.19 247.989L1368.49 246.274C1368.94 246.222 1369.34 246.541 1369.39 246.964C1369.46 247.406 1369.14 247.807 1368.7 247.859Z" fill="#EEEEDB"/>
<g clip-path="url(#clip4_217_1431)">
<path opacity="0.2" d="M1806.63 168.662C1816.4 178.403 1818.01 192.347 1810.72 204.058M1814.74 160.371C1828.51 174.099 1830.78 193.755 1820.5 210.259M1797.8 174.435C1804.97 181.568 1806.16 191.82 1800.79 200.401M1789.14 182.031C1792.73 185.61 1793.32 190.723 1790.64 195.026" stroke="white" stroke-width="3.65231" stroke-linecap="round" stroke-linejoin="round"/>
</g>
<path d="M1318.69 326.945C1318.32 323.738 1318.31 321.416 1318.67 319.979C1319.04 319.644 1319.6 319.433 1320.34 319.348C1321.84 319.175 1322.95 319.193 1323.66 319.402C1323.79 319.409 1323.9 319.687 1324.01 320.237C1324.49 320.057 1325.32 319.898 1326.52 319.76C1328.04 319.585 1329.19 319.556 1329.98 319.674C1329.96 319.155 1330 318.713 1330.1 318.346C1330.26 318.099 1331.13 317.884 1332.72 317.701C1333.25 317.639 1333.65 317.635 1333.9 317.689C1333.95 317.705 1334.05 317.922 1334.23 318.339C1334.42 318.734 1334.63 319.324 1334.87 320.109C1335.11 320.894 1335.27 321.667 1335.36 322.428C1335.52 323.887 1335.36 324.802 1334.86 325.173C1334.22 325.559 1333.61 325.786 1333.03 325.852C1332.15 325.954 1331.41 325.925 1330.8 325.766C1330.58 325.604 1330.45 325.37 1330.41 325.061C1330.38 324.773 1330.42 324.518 1330.54 324.296C1330.05 324.06 1328.9 324.048 1327.07 324.259C1325.83 324.402 1324.98 324.584 1324.5 324.805C1324.26 325.229 1324.19 325.832 1324.28 326.613C1324.31 326.88 1324.4 327.151 1324.56 327.424C1324.71 327.677 1324.92 327.831 1325.17 327.884C1325.42 327.835 1326.03 327.754 1327.02 327.64C1329.9 327.308 1332.12 327.656 1333.67 328.685C1335.25 329.711 1336.14 331.098 1336.34 332.846C1336.56 334.758 1336.02 336.56 1334.71 338.252C1333.41 339.924 1331.81 340.869 1329.92 341.087C1328.44 341.258 1327.02 340.901 1325.67 340.015C1325.57 340.402 1325.29 340.819 1324.84 341.267C1324.28 341.477 1323.65 341.623 1322.96 341.703C1322.07 341.805 1321.34 341.786 1320.76 341.644C1320.58 341.373 1320.44 340.723 1320.32 339.695C1320.18 338.503 1320.15 337.36 1320.23 336.267C1320.34 335.172 1320.6 334.527 1321.01 334.334C1321.51 334.172 1322.03 334.06 1322.57 333.998C1323.51 333.889 1324.26 333.959 1324.81 334.208C1324.97 334.502 1325.07 334.834 1325.11 335.204C1325.8 335.958 1326.75 336.265 1327.97 336.125C1328.75 336.034 1329.41 335.771 1329.94 335.334C1330.49 334.875 1330.73 334.347 1330.66 333.751C1330.56 332.826 1329.78 332.238 1328.33 331.988C1326.89 331.739 1325.2 331.725 1323.27 331.948C1322.16 332.076 1321.21 332.248 1320.42 332.464C1319.67 332.26 1319.09 330.42 1318.69 326.945ZM1340.77 328.553C1340.66 327.545 1340.64 326.849 1340.72 326.465C1342.14 322.718 1344.46 319.647 1347.69 317.254C1348.61 316.732 1349.55 316.415 1350.51 316.303C1351.46 316.194 1352.26 316.309 1352.93 316.649C1353.32 317.541 1353.72 319.673 1354.1 323.045C1354.21 323.95 1354.28 324.629 1354.31 325.084C1354.37 325.077 1354.47 325.065 1354.62 325.048C1354.78 325.009 1354.9 324.984 1354.98 324.975C1355.21 324.949 1355.43 324.944 1355.64 324.962C1356.16 325.131 1356.49 325.801 1356.62 326.973C1356.73 327.878 1356.61 328.506 1356.28 328.857C1356.18 328.951 1355.89 329.027 1355.4 329.084C1355.09 329.119 1354.84 329.137 1354.65 329.138C1354.84 329.846 1354.96 330.436 1355.01 330.909C1355.14 331.999 1355.09 332.807 1354.85 333.334C1354.98 333.299 1355.15 333.268 1355.38 333.242C1355.91 333.181 1356.42 333.237 1356.9 333.411C1357.39 333.582 1357.72 334.367 1357.89 335.765C1357.97 336.464 1357.95 336.966 1357.84 337.27C1356.88 337.631 1355.18 337.952 1352.73 338.235C1349.69 338.586 1348.05 338.619 1347.81 338.335C1347.61 338.107 1347.45 337.417 1347.32 336.266C1347.21 335.341 1347.29 334.728 1347.54 334.428C1347.71 334.283 1348.06 334.149 1348.59 334.025C1348.95 333.921 1349.39 333.839 1349.91 333.78C1349.65 332.602 1349.49 331.817 1349.45 331.426C1349.36 330.707 1349.35 330.166 1349.42 329.805C1348.5 330.015 1347.12 330.226 1345.27 330.44C1343.01 330.701 1341.65 330.784 1341.21 330.69C1341.05 330.458 1340.91 329.745 1340.77 328.553ZM1345.19 325.949C1345.84 325.832 1346.4 325.747 1346.85 325.695C1347.65 325.603 1348.31 325.557 1348.83 325.56C1348.75 324.84 1348.65 323.633 1348.54 321.937C1347 323.407 1345.88 324.744 1345.19 325.949ZM1362.01 322.695C1361.74 320.371 1362.38 318.402 1363.92 316.786C1365.46 315.15 1367.4 314.198 1369.72 313.93C1371.69 313.702 1373.49 314.068 1375.1 315.028C1376.71 315.988 1377.97 317.28 1378.89 318.903C1379.8 320.506 1380.37 322.284 1380.6 324.237C1380.82 326.149 1380.67 327.958 1380.16 329.663C1379.67 331.365 1378.75 332.847 1377.39 334.107C1376.06 335.345 1374.39 336.079 1372.4 336.309C1370.63 336.513 1368.94 336.323 1367.33 335.737C1367.31 335.76 1367.28 335.837 1367.23 335.968C1367.2 336.075 1367.16 336.184 1367.11 336.294C1367.06 336.383 1367.02 336.429 1367 336.431C1366.43 336.498 1365.73 336.516 1364.92 336.485C1364.1 336.433 1363.66 336.318 1363.6 336.137C1363.43 334.364 1363.52 332.928 1363.85 331.827C1364.18 330.705 1364.54 329.966 1364.94 329.607C1365.04 329.575 1365.19 329.547 1365.39 329.523C1365.83 329.473 1366.37 329.515 1367.03 329.647C1367.71 329.756 1368.17 329.881 1368.39 330.021C1368.47 330.158 1368.52 330.319 1368.54 330.504C1368.58 330.895 1368.54 331.17 1368.42 331.331C1369.28 331.585 1370.21 331.655 1371.22 331.538C1372.11 331.436 1372.86 331.172 1373.47 330.747C1374.09 330.301 1374.53 329.771 1374.79 329.158C1375.05 328.544 1375.22 327.951 1375.3 327.379C1375.38 326.808 1375.39 326.265 1375.33 325.751C1375.29 325.34 1375.21 325.067 1375.11 324.932C1374.57 325.954 1373.79 326.773 1372.77 327.39C1371.78 328.005 1370.67 328.383 1369.44 328.526C1367.42 328.758 1365.74 328.328 1364.38 327.234C1363.02 326.14 1362.24 324.627 1362.01 322.695ZM1367.16 322.381C1367.24 323.019 1367.48 323.532 1367.9 323.921C1368.32 324.31 1368.88 324.464 1369.58 324.383C1370.53 324.274 1371.29 323.801 1371.86 322.965C1372.43 322.128 1372.66 321.237 1372.55 320.291C1372.46 319.572 1372.18 319.041 1371.71 318.701C1371.25 318.357 1370.7 318.223 1370.07 318.296C1369.14 318.403 1368.4 318.885 1367.83 319.742C1367.28 320.597 1367.06 321.477 1367.16 322.381ZM1385.8 319.199C1385.43 315.992 1385.42 313.67 1385.77 312.233C1386.15 311.898 1386.71 311.687 1387.45 311.602C1388.95 311.429 1390.06 311.447 1390.77 311.656C1390.9 311.663 1391.01 311.941 1391.12 312.491C1391.6 312.311 1392.43 312.152 1393.62 312.015C1395.14 311.839 1396.3 311.81 1397.08 311.928C1397.06 311.409 1397.11 310.967 1397.21 310.601C1397.37 310.353 1398.24 310.138 1399.82 309.955C1400.36 309.893 1400.75 309.889 1401.01 309.943C1401.05 309.959 1401.16 310.176 1401.33 310.593C1401.53 310.988 1401.74 311.578 1401.98 312.363C1402.21 313.148 1402.37 313.921 1402.46 314.682C1402.63 316.142 1402.47 317.057 1401.97 317.427C1401.32 317.813 1400.71 318.04 1400.14 318.106C1399.26 318.208 1398.51 318.18 1397.91 318.02C1397.68 317.859 1397.55 317.624 1397.52 317.315C1397.48 317.027 1397.53 316.772 1397.65 316.55C1397.16 316.315 1396 316.302 1394.17 316.514C1392.94 316.656 1392.09 316.838 1391.61 317.059C1391.37 317.483 1391.29 318.086 1391.38 318.867C1391.41 319.134 1391.51 319.405 1391.66 319.678C1391.82 319.931 1392.02 320.085 1392.28 320.139C1392.52 320.09 1393.14 320.008 1394.13 319.894C1397 319.562 1399.22 319.91 1400.78 320.939C1402.36 321.965 1403.24 323.352 1403.45 325.1C1403.67 327.012 1403.13 328.814 1401.82 330.506C1400.51 332.178 1398.91 333.123 1397.02 333.341C1395.54 333.512 1394.13 333.155 1392.77 332.269C1392.67 332.656 1392.4 333.073 1391.95 333.521C1391.39 333.731 1390.76 333.877 1390.06 333.957C1389.18 334.059 1388.45 334.04 1387.87 333.898C1387.69 333.627 1387.54 332.977 1387.42 331.949C1387.29 330.757 1387.26 329.614 1387.34 328.521C1387.44 327.426 1387.7 326.782 1388.12 326.588C1388.62 326.426 1389.14 326.314 1389.67 326.252C1390.62 326.143 1391.37 326.213 1391.92 326.462C1392.07 326.756 1392.18 327.088 1392.22 327.458C1392.91 328.212 1393.86 328.519 1395.07 328.379C1395.86 328.289 1396.51 328.025 1397.05 327.589C1397.6 327.129 1397.84 326.601 1397.77 326.005C1397.66 325.08 1396.89 324.492 1395.44 324.243C1394 323.993 1392.31 323.979 1390.37 324.202C1389.26 324.331 1388.31 324.503 1387.53 324.719C1386.77 324.514 1386.2 322.674 1385.8 319.199ZM1425.64 312.038C1425.39 309.9 1425.61 308.552 1426.29 307.993C1426.57 307.816 1427.37 307.598 1428.72 307.339C1430.06 307.059 1431.39 306.843 1432.71 306.691C1435.52 306.366 1437.46 306.485 1438.53 307.05C1437.81 311.967 1436.97 316.584 1436.03 320.901C1435.11 325.195 1434.23 327.818 1433.38 328.77C1432.49 328.998 1431.61 329.161 1430.75 329.261C1429.41 329.415 1428.72 329.35 1428.66 329.064C1429.88 321.048 1431.35 315.139 1433.06 311.338C1432.99 311.345 1432.62 311.42 1431.93 311.562C1431.25 311.702 1430.68 311.81 1430.21 311.885C1430.29 312.877 1430.25 313.579 1430.11 313.991C1429.96 314.092 1429.72 314.16 1429.42 314.196C1428.84 314.262 1428.18 314.214 1427.43 314.05C1426.68 313.886 1426.18 313.674 1425.92 313.412C1425.78 312.907 1425.68 312.45 1425.64 312.038ZM1443.07 323.776C1443.06 323.694 1443.06 323.621 1443.08 323.557C1443.11 323.324 1443.29 322.98 1443.61 322.526C1443.96 322.07 1444.53 321.514 1445.33 320.86C1446.14 320.182 1447.06 319.628 1448.07 319.199C1448.42 319.305 1448.8 319.605 1449.21 320.099C1449.64 320.591 1449.89 321.01 1449.95 321.358C1449.95 321.524 1449.83 321.757 1449.59 322.055C1450.04 322.19 1450.49 322.233 1450.92 322.183C1451.64 322.1 1452.23 321.803 1452.69 321.291C1453.17 320.777 1453.37 320.14 1453.28 319.379C1453.2 318.68 1452.87 318.145 1452.28 317.775C1451.96 317.895 1451.56 317.984 1451.06 318.041C1450.49 318.107 1450.05 318.096 1449.75 318.005C1449.3 317.598 1449.01 316.768 1448.87 315.513C1448.76 314.629 1448.76 313.849 1448.85 313.172C1448.9 313.103 1449.16 313 1449.62 312.863C1450.08 312.706 1450.54 312.601 1450.99 312.549C1451.59 312.48 1451.96 312.5 1452.09 312.61C1452.34 312.247 1452.44 311.82 1452.38 311.326C1452.3 310.627 1452 310.048 1451.46 309.588C1450.93 309.108 1450.3 308.91 1449.58 308.993C1449.25 309.031 1448.96 309.127 1448.71 309.281C1448.72 309.364 1448.76 309.505 1448.82 309.706C1448.64 310.164 1448.29 310.424 1447.75 310.485C1447.61 310.502 1447.48 310.475 1447.37 310.405C1446.9 310.105 1446.41 309.568 1445.9 308.793C1445.4 308.018 1445.11 307.384 1445.06 306.89C1445.29 306.343 1445.84 306.008 1446.72 305.885L1447 306.104C1448.1 305.205 1449.29 304.683 1450.57 304.535C1452.6 304.301 1454.33 304.789 1455.74 306.001C1457.15 307.214 1457.95 308.683 1458.15 310.41C1458.37 312.302 1457.82 313.855 1456.5 315.069C1458.36 316.188 1459.4 317.694 1459.62 319.585C1459.77 320.901 1459.46 322.134 1458.7 323.285C1457.94 324.435 1456.91 325.356 1455.61 326.047C1454.32 326.739 1452.92 327.171 1451.42 327.344C1448.93 327.631 1446.91 327.063 1445.35 325.639C1444.9 325.94 1444.62 326.098 1444.5 326.112C1444.13 325.862 1443.81 325.514 1443.53 325.067C1443.27 324.597 1443.11 324.167 1443.07 323.776ZM1464.89 319.226C1464.76 318.075 1464.9 316.892 1465.32 315.676C1465.77 314.458 1466.46 313.357 1467.41 312.373C1466.03 311.615 1465.26 310.537 1465.1 309.139C1464.92 307.536 1465.4 306.032 1466.55 304.628C1467.72 303.222 1469.49 302.383 1471.85 302.11C1473.78 301.887 1475.31 302.18 1476.42 302.989C1477.55 303.775 1478.22 304.99 1478.41 306.635C1478.5 307.478 1478.43 308.152 1478.2 308.658C1477.99 309.142 1477.61 309.581 1477.07 309.976C1479.42 311.351 1480.72 313.18 1480.99 315.462C1481.23 317.6 1480.57 319.584 1478.99 321.412C1477.42 323.217 1475.33 324.272 1472.69 324.576C1470.49 324.83 1468.69 324.434 1467.28 323.389C1465.88 322.341 1465.09 320.954 1464.89 319.226ZM1470.54 317.855C1470.61 318.431 1470.84 318.914 1471.24 319.306C1471.66 319.695 1472.16 319.856 1472.74 319.79C1473.48 319.704 1474.14 319.284 1474.72 318.53C1475.32 317.773 1475.57 316.963 1475.47 316.099C1475.39 315.462 1475.14 314.95 1474.7 314.563C1474.25 314.177 1473.73 314.019 1473.11 314.09C1472.29 314.185 1471.63 314.646 1471.14 315.473C1470.65 316.28 1470.45 317.074 1470.54 317.855ZM1470.21 308.737C1470.26 309.148 1470.42 309.494 1470.7 309.774C1471.01 310.051 1471.38 310.165 1471.81 310.115C1472.34 310.054 1472.81 309.76 1473.21 309.235C1473.62 308.687 1473.79 308.094 1473.72 307.457C1473.67 307.005 1473.49 306.64 1473.19 306.362C1472.9 306.082 1472.55 305.967 1472.12 306.017C1471.52 306.086 1471.04 306.413 1470.67 306.997C1470.3 307.581 1470.14 308.161 1470.21 308.737ZM1484.74 305.278C1484.62 304.23 1484.61 303.616 1484.72 303.437C1484.97 303.137 1485.31 302.817 1485.73 302.477C1486.15 302.116 1486.88 301.698 1487.93 301.223C1488.98 300.727 1490.1 300.41 1491.29 300.273C1492.03 300.187 1492.62 300.213 1493.05 300.351C1493.41 300.914 1493.79 302.984 1494.2 306.561C1494.79 311.64 1495.05 315.131 1494.97 317.035C1495.1 317 1495.27 316.97 1495.5 316.944C1496.03 316.882 1496.54 316.938 1497.02 317.112C1497.09 317.208 1497.14 317.379 1497.17 317.626C1497.22 318.058 1497.2 318.706 1497.11 319.57C1497.04 320.411 1496.96 320.942 1496.86 321.162C1496.51 321.389 1495.4 321.611 1493.53 321.827C1490.22 322.209 1488.28 322.151 1487.73 321.653C1487.58 321.503 1487.45 320.904 1487.33 319.855C1487.22 318.868 1487.22 318.306 1487.32 318.168L1489.02 317.691C1489.42 317.582 1489.66 317.524 1489.72 317.517C1489.23 315.469 1488.87 313.417 1488.63 311.361C1488.4 309.367 1488.3 307.368 1488.32 305.366C1487.45 306.133 1486.38 306.652 1485.12 306.922C1484.98 306.813 1484.86 306.265 1484.74 305.278ZM1519.51 314.954C1519.5 314.871 1519.5 314.798 1519.51 314.734C1519.55 314.501 1519.73 314.157 1520.05 313.703C1520.39 313.247 1520.96 312.692 1521.76 312.037C1522.58 311.359 1523.5 310.805 1524.51 310.376C1524.86 310.482 1525.23 310.782 1525.64 311.276C1526.08 311.768 1526.32 312.188 1526.38 312.535C1526.38 312.702 1526.26 312.934 1526.03 313.232C1526.48 313.367 1526.92 313.41 1527.35 313.36C1528.07 313.277 1528.66 312.98 1529.13 312.468C1529.61 311.954 1529.81 311.317 1529.72 310.556C1529.64 309.857 1529.3 309.322 1528.72 308.952C1528.4 309.073 1527.99 309.161 1527.5 309.218C1526.93 309.285 1526.49 309.273 1526.18 309.183C1525.74 308.775 1525.45 307.945 1525.3 306.691C1525.2 305.807 1525.19 305.026 1525.28 304.349C1525.34 304.28 1525.6 304.177 1526.06 304.041C1526.52 303.883 1526.98 303.779 1527.43 303.726C1528.03 303.657 1528.39 303.678 1528.53 303.787C1528.78 303.425 1528.88 302.997 1528.82 302.503C1528.74 301.804 1528.43 301.225 1527.9 300.766C1527.37 300.286 1526.74 300.087 1526.02 300.17C1525.69 300.208 1525.4 300.304 1525.15 300.459C1525.16 300.541 1525.19 300.682 1525.26 300.883C1525.08 301.341 1524.73 301.601 1524.19 301.663C1524.05 301.679 1523.92 301.652 1523.81 301.582C1523.33 301.282 1522.85 300.745 1522.34 299.97C1521.83 299.195 1521.55 298.561 1521.5 298.067C1521.72 297.52 1522.28 297.185 1523.16 297.063L1523.44 297.281C1524.54 296.383 1525.73 295.86 1527 295.713C1529.04 295.478 1530.76 295.966 1532.17 297.179C1533.58 298.391 1534.39 299.86 1534.59 301.587C1534.81 303.479 1534.26 305.032 1532.94 306.247C1534.8 307.366 1535.84 308.871 1536.05 310.762C1536.21 312.078 1535.9 313.311 1535.14 314.462C1534.37 315.612 1533.35 316.533 1532.05 317.225C1530.76 317.916 1529.36 318.348 1527.86 318.521C1525.37 318.808 1523.34 318.24 1521.78 316.816C1521.34 317.117 1521.06 317.275 1520.93 317.289C1520.57 317.039 1520.25 316.691 1519.97 316.244C1519.71 315.774 1519.55 315.344 1519.51 314.954ZM1539.68 298.874C1539.44 296.736 1539.66 295.388 1540.34 294.829C1540.61 294.652 1541.42 294.434 1542.77 294.175C1544.11 293.895 1545.44 293.679 1546.75 293.527C1549.57 293.202 1551.51 293.321 1552.58 293.886C1551.85 298.803 1551.02 303.42 1550.08 307.737C1549.16 312.031 1548.28 314.654 1547.43 315.606C1546.54 315.834 1545.66 315.997 1544.8 316.097C1543.46 316.251 1542.76 316.186 1542.71 315.9C1543.93 307.884 1545.4 301.975 1547.1 298.174C1547.04 298.181 1546.66 298.256 1545.97 298.398C1545.3 298.538 1544.73 298.646 1544.26 298.721C1544.33 299.713 1544.3 300.415 1544.16 300.827C1544 300.928 1543.77 300.996 1543.46 301.032C1542.89 301.098 1542.23 301.05 1541.48 300.886C1540.73 300.722 1540.23 300.51 1539.97 300.248C1539.83 299.743 1539.73 299.286 1539.68 298.874ZM1557.81 299.345C1557.44 296.138 1557.43 293.816 1557.78 292.379C1558.16 292.043 1558.72 291.833 1559.46 291.748C1560.96 291.574 1562.07 291.592 1562.78 291.802C1562.91 291.808 1563.02 292.087 1563.13 292.637C1563.61 292.457 1564.44 292.298 1565.63 292.16C1567.16 291.984 1568.31 291.956 1569.09 292.073C1569.07 291.555 1569.12 291.112 1569.22 290.746C1569.38 290.499 1570.25 290.283 1571.83 290.101C1572.37 290.039 1572.76 290.035 1573.02 290.089C1573.06 290.105 1573.17 290.321 1573.35 290.739C1573.54 291.133 1573.75 291.723 1573.99 292.509C1574.22 293.294 1574.39 294.067 1574.47 294.827C1574.64 296.287 1574.48 297.202 1573.98 297.572C1573.33 297.959 1572.73 298.185 1572.15 298.252C1571.27 298.354 1570.52 298.325 1569.92 298.165C1569.69 298.004 1569.56 297.769 1569.53 297.461C1569.49 297.173 1569.54 296.918 1569.66 296.696C1569.17 296.46 1568.01 296.448 1566.18 296.659C1564.95 296.802 1564.1 296.983 1563.62 297.205C1563.38 297.629 1563.3 298.231 1563.39 299.013C1563.42 299.28 1563.52 299.55 1563.67 299.824C1563.83 300.077 1564.03 300.23 1564.29 300.284C1564.53 300.235 1565.15 300.154 1566.14 300.04C1569.02 299.707 1571.23 300.056 1572.79 301.084C1574.37 302.111 1575.26 303.498 1575.46 305.245C1575.68 307.157 1575.14 308.96 1573.83 310.652C1572.52 312.324 1570.92 313.269 1569.03 313.487C1567.55 313.658 1566.14 313.301 1564.78 312.415C1564.68 312.802 1564.41 313.219 1563.96 313.666C1563.4 313.877 1562.77 314.022 1562.07 314.103C1561.19 314.205 1560.46 314.185 1559.88 314.044C1559.7 313.772 1559.55 313.123 1559.43 312.095C1559.3 310.902 1559.27 309.76 1559.35 308.667C1559.45 307.572 1559.71 306.927 1560.13 306.733C1560.63 306.571 1561.15 306.459 1561.68 306.398C1562.63 306.289 1563.38 306.358 1563.93 306.608C1564.09 306.902 1564.19 307.234 1564.23 307.604C1564.92 308.357 1565.87 308.664 1567.09 308.524C1567.87 308.434 1568.52 308.171 1569.06 307.734C1569.61 307.275 1569.85 306.747 1569.78 306.151C1569.67 305.225 1568.9 304.638 1567.45 304.388C1566.01 304.138 1564.32 304.125 1562.38 304.348C1561.27 304.476 1560.33 304.648 1559.54 304.864C1558.78 304.659 1558.21 302.82 1557.81 299.345ZM1580.49 297.477C1580.22 295.154 1580.86 293.184 1582.4 291.569C1583.94 289.933 1585.87 288.98 1588.2 288.712C1590.17 288.484 1591.96 288.85 1593.57 289.81C1595.18 290.77 1596.45 292.062 1597.36 293.685C1598.28 295.288 1598.85 297.066 1599.07 299.019C1599.29 300.932 1599.15 302.74 1598.64 304.445C1598.15 306.147 1597.22 307.629 1595.87 308.89C1594.53 310.127 1592.87 310.861 1590.87 311.091C1589.1 311.295 1587.42 311.105 1585.81 310.52C1585.79 310.543 1585.75 310.619 1585.71 310.75C1585.68 310.857 1585.64 310.966 1585.59 311.076C1585.54 311.165 1585.5 311.211 1585.48 311.214C1584.9 311.28 1584.21 311.298 1583.39 311.267C1582.57 311.216 1582.13 311.1 1582.07 310.92C1581.91 309.147 1581.99 307.71 1582.32 306.609C1582.65 305.488 1583.01 304.748 1583.41 304.39C1583.51 304.357 1583.66 304.329 1583.87 304.306C1584.3 304.256 1584.85 304.297 1585.51 304.429C1586.19 304.538 1586.64 304.663 1586.86 304.804C1586.94 304.94 1586.99 305.101 1587.01 305.286C1587.06 305.677 1587.02 305.953 1586.89 306.113C1587.75 306.368 1588.69 306.437 1589.7 306.321C1590.58 306.219 1591.33 305.955 1591.95 305.529C1592.56 305.083 1593 304.554 1593.27 303.94C1593.53 303.326 1593.7 302.734 1593.78 302.162C1593.86 301.59 1593.87 301.047 1593.81 300.533C1593.76 300.122 1593.69 299.849 1593.59 299.715C1593.04 300.736 1592.26 301.556 1591.25 302.173C1590.26 302.787 1589.14 303.165 1587.91 303.308C1585.9 303.54 1584.21 303.11 1582.86 302.016C1581.5 300.923 1580.71 299.41 1580.49 297.477ZM1585.64 297.164C1585.71 297.801 1585.96 298.314 1586.38 298.703C1586.8 299.092 1587.36 299.246 1588.06 299.166C1589 299.057 1589.76 298.584 1590.33 297.747C1590.9 296.91 1591.13 296.019 1591.02 295.073C1590.94 294.354 1590.66 293.824 1590.18 293.483C1589.73 293.14 1589.18 293.005 1588.54 293.078C1587.62 293.185 1586.87 293.667 1586.3 294.524C1585.76 295.379 1585.53 296.259 1585.64 297.164ZM1623.9 306.811C1623.81 305.737 1623.75 304.911 1623.7 304.333C1623.68 303.732 1623.65 303.016 1623.61 302.187C1623.6 301.355 1623.61 300.729 1623.65 300.308C1623.7 299.885 1623.78 299.376 1623.88 298.781C1623.97 298.166 1624.11 297.703 1624.28 297.391C1624.47 297.057 1624.71 296.686 1624.99 296.277C1625.28 295.849 1625.6 295.519 1625.97 295.289C1626.36 295.036 1626.81 294.766 1627.32 294.478C1627.85 294.188 1628.43 293.943 1629.08 293.744C1629.72 293.524 1630.44 293.315 1631.25 293.117C1631.35 293.085 1631.52 293.045 1631.74 292.999C1631.96 292.952 1632.12 292.914 1632.2 292.884C1632.3 292.851 1632.44 292.814 1632.62 292.772C1632.8 292.71 1632.92 292.665 1632.98 292.637C1633.06 292.586 1633.15 292.534 1633.24 292.481C1633.36 292.406 1633.43 292.334 1633.47 292.268C1633.52 292.199 1633.58 292.12 1633.63 292.031C1633.68 291.921 1633.71 291.803 1633.71 291.677C1633.72 291.551 1633.71 291.417 1633.7 291.273C1633.6 290.45 1633.2 289.851 1632.49 289.475C1631.78 289.078 1630.96 288.933 1630.03 289.039C1629.29 289.125 1628.63 289.357 1628.05 289.737C1627.49 290.114 1627.15 290.601 1627.03 291.198C1627.08 291.568 1627.05 291.915 1626.97 292.237C1626.66 292.501 1625.91 292.702 1624.72 292.84C1624.6 292.854 1624.49 292.867 1624.38 292.879C1624.28 292.87 1624.2 292.868 1624.16 292.873C1623.7 292.823 1623.31 292.305 1622.98 291.322C1622.68 290.315 1622.46 289.205 1622.32 287.992C1622.2 286.923 1622.17 286.196 1622.25 285.812C1622.4 285.67 1622.77 285.513 1623.36 285.341C1623.94 285.17 1624.5 285.053 1625.03 284.991C1625.49 284.939 1625.76 284.949 1625.85 285.022C1626.03 285.126 1626.16 285.361 1626.24 285.727C1626.35 286.069 1626.42 286.289 1626.48 286.387C1627.85 284.896 1629.52 284.036 1631.49 283.808C1633.53 283.573 1635.37 284.08 1637.01 285.328C1638.68 286.573 1639.64 288.316 1639.9 290.557C1639.99 291.38 1639.97 292.121 1639.84 292.782C1639.71 293.423 1639.45 293.963 1639.06 294.404C1638.67 294.824 1638.28 295.181 1637.9 295.475C1637.52 295.769 1637.01 296.016 1636.36 296.215C1635.74 296.412 1635.23 296.554 1634.85 296.64C1634.48 296.724 1633.99 296.822 1633.38 296.934C1631.97 297.18 1631.07 297.462 1630.67 297.779C1630.27 298.096 1630.12 298.801 1630.22 299.893C1631.66 300.019 1632.78 300.035 1633.6 299.94C1634.74 299.809 1635.8 299.478 1636.8 298.946C1636.77 298.887 1636.76 298.816 1636.75 298.734C1636.73 298.631 1636.74 298.526 1636.77 298.418C1636.8 298.31 1636.85 298.18 1636.91 298.027C1636.98 297.873 1637.03 297.763 1637.06 297.697C1637.39 297.451 1637.84 297.295 1638.42 297.228C1639.01 297.159 1639.51 297.206 1639.9 297.369C1640.19 297.482 1640.44 297.943 1640.65 298.751C1640.89 299.557 1641.06 300.361 1641.15 301.163C1641.24 301.923 1641.25 302.61 1641.17 303.223C1641.1 303.836 1641.01 304.252 1640.91 304.472C1640.81 304.692 1640.73 304.826 1640.67 304.874C1640.17 305.036 1639.55 305.16 1638.81 305.245C1637.8 305.362 1637.26 305.321 1637.17 305.122C1636.9 304.403 1636.75 303.963 1636.71 303.801C1636.04 304.503 1634.55 304.987 1632.25 305.253C1631.69 305.317 1630.3 305.415 1628.06 305.548C1628.08 305.88 1628.02 306.074 1627.88 306.132C1627.72 306.4 1627.01 306.608 1625.73 306.755C1624.83 306.859 1624.22 306.878 1623.9 306.811ZM1645.63 300.396C1645.62 300.313 1645.62 300.24 1645.64 300.176C1645.67 299.943 1645.85 299.599 1646.17 299.145C1646.52 298.689 1647.09 298.134 1647.89 297.479C1648.71 296.801 1649.62 296.247 1650.63 295.818C1650.98 295.924 1651.36 296.224 1651.77 296.718C1652.2 297.21 1652.45 297.63 1652.51 297.977C1652.51 298.144 1652.39 298.376 1652.15 298.674C1652.6 298.809 1653.05 298.852 1653.48 298.802C1654.2 298.719 1654.79 298.422 1655.25 297.91C1655.73 297.396 1655.93 296.759 1655.84 295.998C1655.76 295.299 1655.43 294.765 1654.84 294.394C1654.53 294.515 1654.12 294.603 1653.63 294.66C1653.05 294.727 1652.61 294.715 1652.31 294.625C1651.87 294.217 1651.57 293.387 1651.43 292.133C1651.33 291.249 1651.32 290.468 1651.41 289.791C1651.46 289.722 1651.72 289.62 1652.18 289.483C1652.64 289.325 1653.1 289.221 1653.55 289.168C1654.15 289.099 1654.52 289.12 1654.65 289.229C1654.9 288.867 1655 288.439 1654.94 287.945C1654.86 287.246 1654.56 286.667 1654.02 286.208C1653.49 285.728 1652.86 285.529 1652.14 285.612C1651.81 285.65 1651.52 285.746 1651.27 285.901C1651.28 285.983 1651.32 286.124 1651.38 286.325C1651.21 286.783 1650.85 287.043 1650.32 287.105C1650.17 287.121 1650.04 287.094 1649.93 287.024C1649.46 286.724 1648.97 286.187 1648.46 285.412C1647.96 284.637 1647.68 284.003 1647.62 283.509C1647.85 282.962 1648.4 282.627 1649.28 282.505L1649.56 282.723C1650.66 281.825 1651.85 281.302 1653.13 281.155C1655.16 280.92 1656.89 281.408 1658.3 282.621C1659.71 283.833 1660.51 285.302 1660.71 287.029C1660.93 288.921 1660.38 290.474 1659.06 291.689C1660.92 292.808 1661.96 294.313 1662.18 296.204C1662.33 297.52 1662.03 298.753 1661.26 299.904C1660.5 301.054 1659.47 301.975 1658.17 302.667C1656.88 303.358 1655.48 303.79 1653.98 303.963C1651.49 304.25 1649.47 303.682 1647.91 302.258C1647.46 302.559 1647.18 302.717 1647.06 302.731C1646.69 302.481 1646.37 302.133 1646.09 301.686C1645.83 301.216 1645.68 300.786 1645.63 300.396ZM1668.37 301.677C1668.29 300.603 1668.23 299.777 1668.18 299.199C1668.15 298.598 1668.12 297.883 1668.09 297.053C1668.08 296.221 1668.09 295.595 1668.12 295.174C1668.18 294.751 1668.26 294.242 1668.35 293.648C1668.45 293.032 1668.58 292.569 1668.76 292.258C1668.95 291.923 1669.18 291.552 1669.47 291.144C1669.75 290.715 1670.08 290.386 1670.45 290.156C1670.84 289.903 1671.29 289.632 1671.79 289.344C1672.32 289.054 1672.91 288.809 1673.55 288.61C1674.19 288.39 1674.92 288.181 1675.73 287.984C1675.83 287.951 1675.99 287.912 1676.22 287.865C1676.44 287.818 1676.59 287.78 1676.67 287.75C1676.77 287.717 1676.91 287.68 1677.1 287.638C1677.28 287.576 1677.4 287.531 1677.46 287.503C1677.53 287.452 1677.62 287.401 1677.72 287.348C1677.84 287.272 1677.91 287.201 1677.95 287.134C1678 287.065 1678.05 286.986 1678.11 286.897C1678.16 286.787 1678.18 286.669 1678.19 286.543C1678.2 286.418 1678.19 286.283 1678.17 286.139C1678.08 285.317 1677.68 284.717 1676.97 284.341C1676.25 283.944 1675.44 283.799 1674.51 283.906C1673.77 283.991 1673.11 284.224 1672.53 284.603C1671.97 284.98 1671.63 285.467 1671.51 286.064C1671.55 286.435 1671.53 286.781 1671.44 287.104C1671.14 287.368 1670.39 287.569 1669.2 287.706C1669.08 287.72 1668.96 287.734 1668.86 287.745C1668.75 287.737 1668.68 287.735 1668.64 287.739C1668.18 287.689 1667.78 287.172 1667.46 286.188C1667.16 285.181 1666.94 284.072 1666.8 282.858C1666.67 281.789 1666.65 281.063 1666.73 280.678C1666.88 280.536 1667.25 280.379 1667.83 280.207C1668.42 280.036 1668.98 279.919 1669.51 279.857C1669.96 279.805 1670.24 279.815 1670.33 279.888C1670.51 279.993 1670.64 280.227 1670.72 280.593C1670.82 280.935 1670.9 281.155 1670.95 281.253C1672.32 279.762 1674 278.902 1675.97 278.675C1678 278.44 1679.84 278.946 1681.49 280.194C1683.15 281.439 1684.11 283.182 1684.37 285.423C1684.47 286.246 1684.45 286.988 1684.32 287.649C1684.18 288.289 1683.92 288.83 1683.54 289.27C1683.15 289.69 1682.76 290.047 1682.38 290.341C1682 290.635 1681.48 290.882 1680.84 291.082C1680.22 291.278 1679.71 291.42 1679.33 291.506C1678.96 291.59 1678.47 291.688 1677.86 291.8C1676.45 292.046 1675.55 292.328 1675.14 292.645C1674.74 292.962 1674.6 293.667 1674.7 294.759C1676.13 294.885 1677.26 294.901 1678.08 294.806C1679.21 294.676 1680.28 294.344 1681.28 293.812C1681.25 293.753 1681.23 293.682 1681.22 293.6C1681.21 293.497 1681.22 293.392 1681.25 293.284C1681.28 293.177 1681.33 293.046 1681.39 292.893C1681.46 292.739 1681.51 292.629 1681.54 292.563C1681.87 292.317 1682.32 292.161 1682.89 292.094C1683.49 292.026 1683.98 292.073 1684.38 292.236C1684.66 292.349 1684.91 292.809 1685.13 293.617C1685.37 294.423 1685.54 295.227 1685.63 296.029C1685.72 296.79 1685.72 297.476 1685.65 298.089C1685.57 298.702 1685.49 299.118 1685.39 299.338C1685.29 299.558 1685.21 299.692 1685.15 299.74C1684.65 299.902 1684.03 300.026 1683.29 300.112C1682.28 300.228 1681.73 300.187 1681.65 299.988C1681.38 299.27 1681.22 298.829 1681.18 298.667C1680.51 299.369 1679.03 299.853 1676.73 300.119C1676.17 300.183 1674.78 300.282 1672.54 300.415C1672.56 300.746 1672.5 300.94 1672.36 300.998C1672.2 301.266 1671.49 301.474 1670.21 301.621C1669.31 301.725 1668.69 301.744 1668.37 301.677ZM1689.41 281.654C1689.29 280.606 1689.28 279.992 1689.39 279.813C1689.64 279.513 1689.98 279.193 1690.4 278.853C1690.82 278.492 1691.55 278.074 1692.6 277.599C1693.65 277.103 1694.77 276.786 1695.96 276.648C1696.7 276.563 1697.29 276.589 1697.72 276.727C1698.08 277.29 1698.46 279.36 1698.87 282.937C1699.46 288.016 1699.72 291.507 1699.64 293.411C1699.77 293.376 1699.94 293.346 1700.17 293.32C1700.7 293.258 1701.21 293.314 1701.68 293.488C1701.76 293.584 1701.81 293.755 1701.84 294.002C1701.89 294.433 1701.87 295.081 1701.78 295.946C1701.71 296.787 1701.63 297.318 1701.53 297.538C1701.18 297.765 1700.07 297.987 1698.2 298.203C1694.89 298.585 1692.95 298.527 1692.4 298.029C1692.25 297.879 1692.12 297.279 1692 296.231C1691.89 295.244 1691.88 294.682 1691.99 294.544L1693.69 294.067C1694.09 293.958 1694.33 293.9 1694.39 293.893C1693.9 291.845 1693.54 289.793 1693.3 287.737C1693.07 285.742 1692.97 283.744 1692.98 281.742C1692.12 282.509 1691.05 283.028 1689.79 283.298C1689.65 283.189 1689.53 282.641 1689.41 281.654Z" fill="white"/>
<path d="M1566.84 101.785L1579.74 100.296C1587.55 99.3945 1590.31 95.0174 1589.66 89.3518C1589.04 83.9792 1585.35 80.3463 1577.54 81.2483L1564.65 82.7366L1566.84 101.785ZM1570.84 136.365L1557.26 137.932L1549.77 73.0704L1578.39 69.7667C1591.09 68.301 1600.27 76.645 1601.62 88.367C1602.99 100.187 1595.86 109.621 1583.16 111.087L1568.12 112.823L1570.84 136.365ZM1651.93 127.004L1639.91 128.391L1639.14 121.651C1636.45 127.504 1631.76 130.619 1625.12 131.386C1615.54 132.491 1607.98 126.138 1606.76 115.588L1603.11 83.9391L1615.81 82.4733L1619.24 112.169C1619.93 118.225 1623.01 120.84 1628.38 120.22C1634.83 119.476 1637.72 114.49 1636.98 108.141L1633.78 80.3987L1646.38 78.9442L1651.93 127.004ZM1669.12 125.02L1656.42 126.485L1648.85 60.8426L1661.55 59.3769L1669.12 125.02ZM1710.64 86.2764L1698.42 87.6858C1697.2 83.076 1694.47 81.7085 1688.71 82.3737C1683.92 82.9262 1681.32 84.4141 1681.65 87.2469C1681.97 90.0797 1684.75 90.9475 1690.09 91.8152C1695.74 92.7467 1701.04 93.2236 1704.92 94.2604C1710.24 95.7254 1713.46 98.7197 1714.18 104.971C1715.33 114.935 1708.69 121.739 1695.02 123.318C1680.26 125.02 1671.26 119.032 1669.94 109.286L1683.03 107.775C1683.54 112.269 1687.66 114.467 1693.81 113.756C1698.31 113.238 1702.15 111.408 1701.74 107.793C1701.34 104.375 1697.6 103.717 1693.39 103.214C1685.05 102.196 1680.4 101.347 1676.74 99.5928C1671.92 97.2786 1669.92 93.7471 1669.43 89.4491C1668.49 81.3414 1673.35 74.5447 1688 72.8534C1701.87 71.2523 1708.76 76.001 1710.64 86.2764ZM1727.08 89.2287L1746.71 86.9624C1745.69 79.8541 1740.61 76.9764 1735.63 77.5514C1730.55 78.1377 1726.8 82.5299 1727.08 89.2287ZM1760.73 93.4615L1727.61 97.2838C1728.84 104.467 1733.48 108.682 1739.73 107.961C1743.84 107.487 1747.21 105.019 1747.71 101.596L1760.8 100.085C1759.01 110.289 1751.74 116.771 1741.48 117.954C1725.46 119.804 1716.44 111.937 1714.43 94.5492C1712.72 79.7014 1720.11 69.1475 1734.86 67.445C1749.61 65.7424 1758.53 74.4133 1760.73 93.4615ZM1805.08 81.6107L1776.56 84.9031L1779.72 112.254L1766.14 113.822L1758.65 48.9601L1804.86 43.627L1806.16 54.9582L1773.54 58.7241L1775.24 73.4742L1803.76 70.1819L1805.08 81.6107ZM1827.67 106.72L1814.97 108.185L1809.42 60.1253L1822.12 58.6596L1827.67 106.72ZM1821.45 52.8963L1808.76 54.362L1807.39 42.5424L1820.09 41.0766L1821.45 52.8963Z" fill="white"/>
</g>
</g>
<defs>
<filter id="filter0_in_217_1431" x="0" y="181" width="2344.01" height="171.801" filterUnits="userSpaceOnUse" color-interpolation-filters="sRGB">
<feFlood flood-opacity="0" result="BackgroundImageFix"/>
<feBlend mode="normal" in="SourceGraphic" in2="BackgroundImageFix" result="shape"/>
<feColorMatrix in="SourceAlpha" type="matrix" values="0 0 0 0 0 0 0 0 0 0 0 0 0 0 0 0 0 0 127 0" result="hardAlpha"/>
<feOffset dx="103.218" dy="4.80085"/>
<feGaussianBlur stdDeviation="42.0074"/>
<feComposite in2="hardAlpha" operator="arithmetic" k2="-1" k3="1"/>
<feColorMatrix type="matrix" values="0 0 0 0 0.257526 0 0 0 0 0.244942 0 0 0 0 1 0 0 0 0.31 0"/>
<feBlend mode="normal" in2="shape" result="effect1_innerShadow_217_1431"/>
<feTurbulence type="fractalNoise" baseFrequency="0.12252728641033173 0.12252728641033173" stitchTiles="stitch" numOctaves="3" result="noise" seed="187" />
<feColorMatrix in="noise" type="luminanceToAlpha" result="alphaNoise" />
<feComponentTransfer in="alphaNoise" result="coloredNoise1">
<feFuncA type="discrete" tableValues="1 1 1 1 1 1 1 1 1 1 1 1 1 1 1 1 1 1 1 1 1 1 1 1 1 1 1 1 1 1 1 1 1 1 1 1 1 1 1 1 1 1 1 1 1 1 1 1 1 1 1 0 0 0 0 0 0 0 0 0 0 0 0 0 0 0 0 0 0 0 0 0 0 0 0 0 0 0 0 0 0 0 0 0 0 0 0 0 0 0 0 0 0 0 0 0 0 0 0 0 "/>
</feComponentTransfer>
<feComposite operator="in" in2="effect1_innerShadow_217_1431" in="coloredNoise1" result="noise1Clipped" />
<feFlood flood-color="rgba(33, 5, 97, 0.1)" result="color1Flood" />
<feComposite operator="in" in2="noise1Clipped" in="color1Flood" result="color1" />
<feMerge result="effect2_noise_217_1431">
<feMergeNode in="effect1_innerShadow_217_1431" />
<feMergeNode in="color1" />
</feMerge>
</filter>
<clipPath id="bgblur_3_217_1431_clip_path" transform="translate(-1165.13 68.8716)"><rect x="1232" y="72.125" width="646.459" height="383.492" rx="27.3923" transform="rotate(-6.58427 1232 72.125)"/>
</clipPath><linearGradient id="paint0_linear_217_1431" x1="247.188" y1="148.528" x2="307.093" y2="604.547" gradientUnits="userSpaceOnUse">
<stop stop-color="#6D37EA"/>
<stop offset="1" stop-color="#886AFA"/>
</linearGradient>
<linearGradient id="paint1_linear_217_1431" x1="1129.76" y1="155.82" x2="1129.76" y2="347.854" gradientUnits="userSpaceOnUse">
<stop stop-opacity="0"/>
<stop offset="1" stop-opacity="0.18"/>
</linearGradient>
<linearGradient id="paint2_linear_217_1431" x1="1739.37" y1="76.7935" x2="2520.62" y2="100.684" gradientUnits="userSpaceOnUse">
<stop stop-color="#DBDBDB"/>
<stop offset="1" stop-color="#6A76AF"/>
</linearGradient>
<linearGradient id="paint3_linear_217_1431" x1="1245.74" y1="90.3865" x2="1847.71" y2="349.107" gradientUnits="userSpaceOnUse">
<stop stop-color="#9785DF"/>
<stop offset="1" stop-color="#9D93C4"/>
</linearGradient>
<clipPath id="clip0_217_1431">
<rect width="2260" height="348" fill="white"/>
</clipPath>
<clipPath id="clip1_217_1431">
<rect y="181" width="2260" height="167" rx="83.5" fill="white"/>
</clipPath>
<clipPath id="clip2_217_1431">
<rect width="1000" height="348" fill="white" transform="translate(1158)"/>
</clipPath>
<clipPath id="clip4_217_1431">
<rect width="60.2631" height="62.0893" fill="white" transform="translate(1835.65 152.902) rotate(83.4157)"/>
</clipPath>
</defs>
</svg>
